<svg width="16" height="21" viewBox="0 0 16 21" fill="none" xmlns="http://www.w3.org/2000/svg">
<g clip-path="url(#clip0_31_44)">
<path d="M8.94162 1.698C8.42078 1.1853 7.57495 1.1853 7.05412 1.698L0.387451 8.2605C-0.133382 8.77319 -0.133382 9.60581 0.387451 10.1185C0.908284 10.6312 1.75412 10.6312 2.27495 10.1185L6.66662 5.79136V18.375C6.66662 19.1009 7.26245 19.6875 7.99995 19.6875C8.73745 19.6875 9.33328 19.1009 9.33328 18.375V5.79546L13.725 10.1144C14.2458 10.6271 15.0916 10.6271 15.6125 10.1144C16.1333 9.60171 16.1333 8.76909 15.6125 8.2564L8.94578 1.6939L8.94162 1.698Z" fill="#FFF457"/>
</g>
<defs>
<clipPath id="clip0_31_44">
<rect width="16" height="21" fill="white"/>
</clipPath>
</defs>
</svg>
