<svg width="196" height="86" viewBox="0 0 196 86" fill="none" xmlns="http://www.w3.org/2000/svg">
<path d="M129.18 0.910761C129.18 1.66994 129.329 1.82178 130.111 1.82178C130.893 1.82178 131.042 1.66994 131.042 0.910761C131.042 0.151582 130.893 -0.000254512 130.111 -0.000254512C129.329 -0.000254512 129.18 0.151582 129.18 0.910761Z" fill="white"/>
<path d="M93.0694 10.0213V19.7388H100.329H107.588L107.514 10.082L107.402 0.455597L100.254 0.364494L93.0694 0.303761V10.0213ZM105.168 13.969C105.168 14.6371 104.982 14.7282 103.568 14.8193C102.414 14.88 101.93 14.7889 101.781 14.4549C101.297 13.4528 101.93 13.0276 103.568 13.1187C104.982 13.2098 105.168 13.3009 105.168 13.969ZM105.355 17.1576C105.355 17.856 105.243 17.9167 103.493 17.9167C101.93 17.9167 101.632 17.8256 101.632 17.3701C101.632 16.5502 101.967 16.3984 103.754 16.3984C105.206 16.3984 105.355 16.4591 105.355 17.1576Z" fill="white"/>
<path d="M129.18 3.03674C129.18 3.79592 129.329 3.94775 130.111 3.94775C130.893 3.94775 131.042 3.79592 131.042 3.03674C131.042 2.27756 130.893 2.12572 130.111 2.12572C129.329 2.12572 129.18 2.27756 129.18 3.03674Z" fill="white"/>
<path d="M129.329 5.76991L129.59 7.28827L121.102 7.349L112.614 7.4401L112.502 18.8885L112.428 30.3673L83.2785 30.4281L54.1664 30.5192V34.7706V39.022L93.1811 39.1131L132.159 39.1738V23.3525C132.159 7.74377 132.159 7.5312 131.414 7.37937C130.744 7.22753 130.669 7.04533 130.893 5.73954C131.116 4.28191 131.116 4.25154 130.111 4.25154C129.106 4.25154 129.069 4.28191 129.329 5.76991ZM130.483 17.3094V25.0531H124.713H118.943L118.831 17.6131C118.794 13.5439 118.831 10.0213 118.943 9.77838C119.054 9.4747 120.395 9.41397 124.787 9.4747L130.483 9.56581V17.3094ZM123.894 27.5736L124.006 29.183L121.474 29.0919L118.943 29.0008L118.831 27.8165C118.645 25.9034 118.831 25.7819 121.437 25.873L123.782 25.9641L123.894 27.5736Z" fill="white"/>
<path d="M120.692 10.9931C120.432 11.2057 120.246 12.2382 120.246 13.544C120.246 16.5199 120.506 16.7021 124.676 16.7021C128.771 16.7021 129.18 16.4288 129.18 13.6958C129.18 10.7198 129.069 10.6287 124.787 10.6287C122.442 10.6287 120.99 10.7502 120.692 10.9931Z" fill="white"/>
<path d="M53.9803 18.9799V29.4565H69.4298H84.8793V18.9799V8.50317H69.4298H53.9803V18.9799ZM78.9601 13.3316L80.0397 14.2122V18.9799V23.7475L78.9601 24.6282L77.8805 25.5088H68.7969C58.8943 25.5088 58.5965 25.4481 57.7403 23.7475C57.4052 23.1402 57.3308 21.4092 57.4052 18.3725C57.5169 13.9085 57.5169 13.9085 58.5593 13.1797C59.6016 12.4509 59.6389 12.4509 68.7224 12.4509H77.8805L78.9601 13.3316ZM83.0179 18.828C83.0179 21.8647 82.869 23.6868 82.6456 23.6868C82.4223 23.6868 82.2734 21.8647 82.2734 18.828C82.2734 15.7913 82.4223 13.9693 82.6456 13.9693C82.869 13.9693 83.0179 15.7913 83.0179 18.828Z" fill="white"/>
<path d="M96.7922 21.1054C96.7922 21.6521 96.9783 21.8646 97.5367 21.8646C98.1696 21.8646 98.2813 22.0772 98.3557 23.2919L98.393 24.7495L98.6163 23.383C98.8025 22.2594 98.9886 21.9861 99.6959 21.9254C100.292 21.8343 100.515 21.6217 100.515 21.0751C100.515 20.407 100.366 20.3463 98.6536 20.3463C96.9039 20.3463 96.7922 20.407 96.7922 21.1054Z" fill="white"/>
<path d="M87.932 27.8465L88.0436 29.0005H99.0258H110.008L110.12 27.8465L110.231 26.7229H99.0258H87.8203L87.932 27.8465Z" fill="white"/>
<path d="M55.4694 41.907V44.0327H66.6377H77.806V43.1217V42.2107H93.0694H108.333V43.1217V44.0327L119.427 43.972L130.483 43.8809V41.907V39.9331L92.9949 39.842L55.4694 39.7813V41.907Z" fill="white"/>
<path d="M30.6384 61.9792C25.6499 62.3437 24.1236 63.0725 20.6986 66.8076C18.3533 69.3585 16.343 71.059 15.7473 71.059C15.04 71.059 15.1145 70.8465 16.9386 66.4736C17.8693 64.2872 18.6139 62.374 18.6139 62.2222C18.6139 62.0703 16.6036 61.9489 14.1838 61.9489H9.75367L8.63684 64.5908C3.53664 76.7377 0 85.362 0 85.6353C0 85.8175 1.67525 85.939 4.4301 85.939H8.82298L10.7961 81.2321C11.9129 78.5597 12.918 76.5251 13.2159 76.5251C14.4816 76.5251 15.1889 78.2864 15.8218 83.0541C16.2313 86.1819 15.7473 85.939 21.4432 85.939C24.198 85.939 26.4317 85.8479 26.4317 85.696C26.4317 85.028 24.8309 77.7095 24.4959 76.7073C24.2353 76.0393 23.4907 75.0675 22.8578 74.5209L21.6666 73.5795L23.2674 72.6381C24.1608 72.1219 25.5382 70.9679 26.3573 70.0873C28.1442 68.1134 29.3727 67.415 31.7925 66.9595L33.6539 66.6254L34.5101 64.5301C35.5525 62.0096 35.5525 61.6452 34.7335 61.6756C34.3612 61.7059 32.5371 61.8274 30.6384 61.9792Z" fill="white"/>
<path d="M38.8286 72.1829C33.8773 77.8312 29.1493 83.2366 28.2931 84.2083L26.7668 85.9393H31.4575H36.1482L37.6373 83.9654L39.1636 81.9915H44.3383H49.5129V83.9958V86L58.7454 85.8785L67.9407 85.7874L69.9882 84.846C73.227 83.3581 74.53 81.4146 78.625 71.6667L80.2258 67.8708L83.353 67.7797C85.0654 67.7189 86.629 67.81 86.8151 67.9619C87.0013 68.1137 85.6611 71.7882 83.5763 76.7684C81.6405 81.4449 80.0397 85.423 80.0397 85.6052C80.0397 85.8178 81.5288 85.9393 84.4698 85.9393C88.3415 85.9393 88.8999 85.8785 89.086 85.423C89.1977 85.1194 91.3942 79.8355 93.9629 73.6709C96.5316 67.5064 98.6536 62.344 98.6536 62.1921C98.6536 62.0706 92.9949 61.9492 86.1078 61.9492H73.5248L70.3977 69.6321C67.0472 77.7705 65.9304 79.9873 64.888 80.4428C64.5157 80.5946 63.4361 80.8072 62.5054 80.9287C60.8674 81.1109 60.7557 81.202 60.309 82.3863C59.1921 85.4838 58.9316 85.3927 58.671 81.8093C58.5593 79.9873 58.3731 75.9788 58.2615 72.8814C58.1498 69.7839 57.9636 66.0791 57.8519 64.5911L57.6286 61.9492H52.7145H47.8005L38.8286 72.1829ZM50.1086 69.4195C49.9969 69.6928 49.8852 71.4541 49.8852 73.3672V76.8291H46.7208C44.9711 76.8291 43.5565 76.738 43.5565 76.6469C43.5565 76.5558 44.3383 75.4929 45.3062 74.3086C46.2369 73.0939 47.5771 71.3934 48.2844 70.5127C49.4385 69.0551 50.6298 68.3263 50.1086 69.4195Z" fill="white"/>
<path d="M104.833 62.2222C104.647 62.4651 94.9308 85.6657 94.9308 85.8479C94.9308 85.9086 96.5688 85.939 98.6163 85.939H102.265L105.727 77.6487C108.854 70.2088 109.822 68.1742 109.822 69.1155C109.822 69.2977 109.673 70.8465 109.45 72.6078C109.263 74.3387 108.928 77.6184 108.705 79.8655C108.482 82.1127 108.221 84.4206 108.109 84.9368L107.923 85.939H111.385H114.848L120.99 77.5576C124.341 72.9418 127.17 69.2977 127.207 69.4496C127.319 69.6621 121.921 83.0541 120.804 85.3924C120.543 85.8782 120.879 85.939 124.266 85.939H127.952L129.664 81.9305C133.834 72.0915 137.743 62.5562 137.743 62.2526C137.743 62.0703 135.658 61.9489 131.898 61.9489H126.016L121.027 68.7815C118.31 72.547 115.89 75.7052 115.741 75.7963C115.555 75.8874 115.481 75.0675 115.629 73.8832C116.374 66.9291 116.746 62.374 116.635 62.1614C116.411 61.8578 105.057 61.8881 104.833 62.2222Z" fill="white"/>
<path d="M143.513 62.2525C143.29 62.5259 133.648 85.5746 133.648 85.8175C133.648 85.8782 139.232 85.939 146.044 85.939H158.441L159.446 83.4185C160.005 82.0216 160.452 80.8069 160.452 80.6854C160.452 80.564 157.027 80.4729 152.82 80.4729C148.613 80.4729 145.188 80.3818 145.188 80.2603C145.188 80.1388 145.561 79.1367 146.007 77.9828L146.826 75.9178L153.453 75.8874C157.101 75.8571 160.303 75.8267 160.563 75.7963C160.787 75.7963 161.457 74.7031 162.015 73.3973L163.02 71.059H156.17C148.39 71.059 148.762 71.2109 149.879 68.5386L150.475 67.1113L158.144 67.0506L165.85 66.9595L166.855 64.6819C167.413 63.4369 167.86 62.3133 167.86 62.1614C167.897 61.8274 143.774 61.8881 143.513 62.2525Z" fill="white"/>
<path d="M172.476 63.8322C172.029 64.895 169.833 70.2093 167.562 75.6754C165.291 81.1415 163.43 85.6662 163.43 85.7876C163.43 85.8787 165.477 85.9091 167.972 85.8787L172.476 85.7876L174.226 81.5362L175.976 77.2848L178.358 77.2241C188.372 76.9204 192.765 74.8251 195.111 69.2983C196.451 66.1401 195.744 63.8018 193.138 62.6478C192.058 62.162 190.718 62.1012 182.602 62.0101L173.258 61.919L172.476 63.8322ZM185.171 67.1118C187.107 67.6888 186.586 69.9967 184.24 71.4543C183.161 72.092 178.321 72.6083 178.321 72.0617C178.321 71.6973 180.033 67.537 180.368 67.1118C180.666 66.717 183.942 66.717 185.171 67.1118Z" fill="white"/>
</svg>
