<?xml version="1.0" encoding="UTF-8" standalone="no"?>
<svg width="504px" height="223px" viewBox="0 0 504 223" version="1.1" xmlns="http://www.w3.org/2000/svg" xmlns:xlink="http://www.w3.org/1999/xlink">
    <defs></defs>
    <g id="Page-1" stroke="none" stroke-width="1" fill="none" fill-rule="evenodd">
        <g id="Шаблон-под-автомобили2" transform="translate(-502.000000, -316.000000)" fill-rule="nonzero">
            <g id="Group-2" transform="translate(104.000000, 316.000000)">
                <g id="Group" transform="translate(398.000000, 0.000000)">
                    <g id="Shape">
                        <polygon fill="#FFCA05" points="314.783471 156.29361 0.620059366 122.50464 21.0820184 0.328667396 314.783471 0.328667396"></polygon>
                        <polygon fill="#FFDB06" points="306.516013 67.2885174 15.7081706 90.1578816 29.1427902 10.4241525 306.516013 10.4241525"></polygon>
                    </g>
                    <rect id="Rectangle-path" fill="#3D3B39" transform="translate(188.000000, 179.500000) rotate(-35.139399) translate(-188.000000, -179.500000) " x="171" y="176" width="34" height="7"></rect>
                    <polygon id="Shape" fill="#484644" points="98 182.990826 90 187 90 164 98 164"></polygon>
                    <rect id="Rectangle-path" fill="#3D3B39" x="19" y="164" width="71" height="8"></rect>
                    <rect id="Rectangle-path" fill="#2D2B2A" x="19" y="167" width="71" height="3"></rect>
                    <rect id="Rectangle-path" fill="#FFCA05" x="19" y="164" width="8" height="8"></rect>
                    <path d="M501,154.544164 C501,147.312303 497.893096,140.493691 492.300668,135.741325 C486.915367,131.195584 481.530067,127.063091 481.530067,127.063091 L391.222717,54.3312303 C383.973274,47.7192429 372.374165,44 361.396437,44 L352.697105,44 L320.385301,44 C317.278396,44 315,46.4794953 315,49.3722397 L315,169.62776 C315,172.727129 317.485523,175 320.385301,175 L500.792873,175 L500.792873,154.544164 L501,154.544164 Z" id="Shape" fill="#353434"></path>
                    <path d="M474.331695,135.741325 C468.965602,131.195584 463.599509,127.063091 463.599509,127.063091 L373.614251,54.3312303 C366.390663,47.7192429 354.832924,44 343.894349,44 L335.226044,44 L320.366093,44 C317.27027,44 315,46.4794953 315,49.3722397 L315,169.62776 C315,172.727129 317.476658,175 320.366093,175 L483,175 L483,154.544164 C482.793612,147.312303 479.697789,140.493691 474.331695,135.741325 Z" id="Shape" fill="#3F3E3C"></path>
                    <path d="M424,182 L322.370656,182 C319.272201,182 317,179.519231 317,176.625 L317,58.375 C317,55.2740385 319.478764,53 322.370656,53 L354.594595,53 L363.27027,53 C374.218147,53 385.992278,59.2019231 392.189189,65.8173077 L417.596525,92.6923077 C421.727799,97.0336538 424,102.822115 424,108.817308 L424,182 L424,182 Z" id="Shape" fill="#333231"></path>
                    <polygon id="Shape" fill="#8AB9B3" points="356.391015 113 466 113 399.236273 60 341 60 341 105.223938 356.391015 105.223938"></polygon>
                    <polygon id="Shape" fill="#B3DEE2" points="356.391015 113 437.71381 110.135135 466 113 399.236273 60 341 60 341 105.223938 356.391015 105.223938"></polygon>
                    <polygon id="Shape" fill="#CAE6EA" points="446.94802 113 464 113 398.05198 60 381 60"></polygon>
                    <polygon id="Shape" fill="#353434" points="357.638935 105.488722 357.638935 97.6315789 342.24792 97.6315789 342.24792 60 341 60 341 105.695489 356.391015 105.695489 356.391015 113.552632 448.945092 113.552632 457.888519 115 466 113.552632 456.016639 105.488722"></polygon>
                    <rect id="Rectangle-path" fill="#2D2B2A" x="425" y="160" width="75" height="14"></rect>
                    <path d="M482.28534,195 L425,195 L425,164 L501.311518,164 C502.759162,164 504,165.248322 504,166.704698 L504,172.946309 C504,185.013423 494.280105,195 482.28534,195 Z" id="Shape" fill="#2D2B2A"></path>
                    <path d="M501.311518,164 L425,164 L425,168.064516 L501.311518,168.064516 C502.759162,168.064516 504,169.419355 504,171 L504,166.935484 C504,165.354839 502.759162,164 501.311518,164 Z" id="Shape" fill="#3D3B39"></path>
                    <g transform="translate(424.000000, 164.000000)" id="Shape" fill="#4F4D4A">
                        <path d="M2.18414652,1.77915058 L78.2513439,1.77915058 C78.457488,1.77915058 78.6636322,1.77915058 78.8697764,2.0015444 C78.457488,0.88957529 77.4267672,0 76.3960464,0 L0.328849027,0 L0.328849027,4.0030888 L2.18414652,4.0030888 L2.18414652,1.77915058 Z"></path>
                        <path d="M78.8697764,5.78223938 C79.0759205,6.0046332 79.0759205,6.44942085 79.0759205,6.67181467 L78.8697764,5.78223938 C79.0759205,6.0046332 78.8697764,6.0046332 78.8697764,5.78223938 Z"></path>
                    </g>
                    <path d="M94,170 L62.4220532,170 C48.8288973,170 39,155 39,155 L91.2813688,155 L94,170 Z" id="Shape" fill="#3D3B39"></path>
                    <polygon id="Shape" fill="#484644" points="315 155 57 155 78.2932692 176 315 176"></polygon>
                    <polygon id="Shape" fill="#3D3B39" points="65.0625 163 315 163 315 155 57 155"></polygon>
                    <path d="M319,180 L319,186.428571 C319,189.642857 321.478764,192 324.370656,192 L426,192 L426,180 L319,180 Z" id="Shape" fill="#2D2B2A"></path>
                    <path d="M426,115 L426,110.608365 C426,104.543726 423.746988,98.6882129 419.650602,94.2965779 L394.457831,67.1102662 C392.409639,64.8098859 389.746988,62.7186312 386.879518,60.8365019 L384.421687,60 L380.325301,60.8365019 L341,60.8365019 L341,107.053232 L356.156627,107.053232 L356.156627,115 L426,115 Z" id="Shape" fill="#333231"></path>
                    <path d="M422,182 L320.370656,182 C317.272201,182 315,179.519231 315,176.625 L315,58.375 C315,55.2740385 317.478764,53 320.370656,53 L352.594595,53 L361.27027,53 C372.218147,53 383.992278,59.2019231 390.189189,65.8173077 L415.596525,92.6923077 C419.727799,97.0336538 422,102.822115 422,108.817308 L422,182 L422,182 Z" id="Shape" fill="#484644"></path>
                    <path d="M414.60625,92.6288 L389.2375,65.7968 C383.25625,59.192 371.29375,53 360.3625,53 L355,53 C365.93125,53 377.6875,59.192 383.875,65.7968 L409.24375,92.6288 C413.36875,96.9632 415.6375,102.7424 415.6375,108.728 L415.6375,182 L421,182 L421,108.728 C421,102.7424 418.73125,96.9632 414.60625,92.6288 Z" id="Shape" fill="#514E4C"></path>
                    <path d="M329.408602,176.625 L329.408602,58.375 C329.408602,55.2740385 331.989247,53 335,53 L320.591398,53 C317.365591,53 315,55.4807692 315,58.375 L315,176.625 C315,179.725962 317.580645,182 320.591398,182 L335,182 C331.989247,182 329.408602,179.519231 329.408602,176.625 Z" id="Shape" fill="#514E4C"></path>
                    <path d="M328.666667,176.625 L328.666667,58.375 C328.666667,55.2740385 331.128205,53 334,53 L331.333333,53 C328.25641,53 326,55.4807692 326,58.375 L326,176.625 C326,179.725962 328.461538,182 331.333333,182 L334,182 C331.128205,182 328.666667,179.519231 328.666667,176.625 Z" id="Shape" fill="#3D3C3A"></path>
                    <path d="M327.6,131 L329,131 L329,112 L327.6,112 C325.6,112 324,113.67033 324,115.758242 L324,127.241758 C324,129.32967 325.6,131 327.6,131 Z" id="Shape" fill="#605D5A"></path>
                    <path d="M327.6,128 L329,128 L329,109 L327.6,109 C325.6,109 324,110.67033 324,112.758242 L324,124.241758 C324,126.32967 325.6,128 327.6,128 Z" id="Shape" fill="#3D3B39"></path>
                    <path d="M399.217488,202 L418.260299,192.909091 L441.856826,195.181818 L454.483037,195.181818 C454.483037,195.181818 456.138934,195.181818 456.552908,194.768595 C457.173869,194.355372 456.966882,193.735537 456.966882,192.909091 C456.966882,170.38843 438.752019,152 415.983441,152 C393.42185,152 375,170.181818 375,192.909091 C375,194.975207 375.206987,197.041322 375.413974,198.900826 C375.620961,200.553719 377.069871,202 378.932754,202 L399.217488,202 Z" id="Shape" fill="#3D3B39"></path>
                    <path d="M417.103011,159 C398.781848,159 384,173.339901 384,191.1133 C384,194.142857 384.41639,197.172414 385.24917,200 L399.614628,200 L418.768572,191.1133 L442.502806,193.334975 L449.789632,193.334975 C449.789632,192.527094 449.997827,191.719212 449.997827,191.1133 C450.206022,173.339901 435.424175,159 417.103011,159 Z" id="Shape" fill="#2D2B2A"></path>
                    <g transform="translate(386.000000, 162.000000)">
                        <ellipse id="Oval" fill="#808085" cx="30.3843485" cy="30.3843485" rx="29.7642598" ry="29.7642598"></ellipse>
                        <path d="M30.3843485,3.72053247 C46.2999597,3.72053247 59.1151271,16.1223074 59.9419121,31.8312223 L59.9419121,30.3843485 C59.9419121,14.0553449 46.7133522,0.620088745 30.1776523,0.620088745 C13.8486486,0.620088745 0.413392497,13.8486486 0.413392497,30.3843485 L0.413392497,31.8312223 C1.65356999,16.3290036 14.4687374,3.72053247 30.3843485,3.72053247 Z" id="Shape" fill="#8E8E91"></path>
                        <ellipse id="Oval" fill="#444446" cx="30.3843485" cy="29.5575635" rx="21.9098023" ry="21.9098023"></ellipse>
                        <ellipse id="Oval" fill="#69696D" cx="30.3843485" cy="29.5575635" rx="17.5691811" ry="17.5691811"></ellipse>
                        <ellipse id="Oval" fill="#B6B6B6" cx="30.3843485" cy="29.5575635" rx="15.0888261" ry="15.0888261"></ellipse>
                        <path d="M39.4789835,17.3624849 C41.3392497,19.8428399 42.5794272,22.9432836 42.5794272,26.4571198 C42.5794272,34.7249697 35.758451,41.5459459 27.490601,41.5459459 C24.1834611,41.5459459 20.8763211,40.3057685 18.3959661,38.4455022 C21.0830173,42.1660347 25.6303348,44.4396934 30.3843485,44.4396934 C38.6521985,44.4396934 45.4731747,37.6187172 45.4731747,29.3508673 C45.4731747,24.5968536 43.1995159,20.2562324 39.4789835,17.3624849 Z" id="Shape" fill="#A5A5A5"></path>
                        <g transform="translate(15.379185, 14.468737)" id="Shape" fill="#5A5A5B">
                            <g transform="translate(11.491327, 0.000000)">
                                <path d="M7.02767245,0.413392497 C5.99419121,0.206696248 4.75401372,0 3.51383622,0 C2.27365873,0 1.24017749,0.206696248 0,0.413392497 C0.206696248,2.06696248 1.65356999,3.51383622 3.51383622,3.51383622 C5.37410246,3.51383622 6.8209762,2.06696248 7.02767245,0.413392497 Z"></path>
                                <path d="M0,29.7642598 C1.03348124,29.970956 2.27365873,30.1776523 3.51383622,30.1776523 C4.75401372,30.1776523 5.78749496,29.970956 7.02767245,29.7642598 C6.8209762,28.1106898 5.37410246,26.6638161 3.51383622,26.6638161 C1.86026624,26.6638161 0.206696248,28.1106898 0,29.7642598 Z"></path>
                            </g>
                            <g transform="translate(0.000000, 4.133925)">
                                <path d="M4.0502622,0.620088745 C3.22347721,1.44687374 2.60338846,2.27365873 1.98329972,3.30713998 C1.36321097,4.34062122 0.949818475,5.37410246 0.536425978,6.4075837 C2.18999597,7.02767245 4.0502622,6.61427995 4.8770472,4.96070996 C5.91052844,3.51383622 5.49713594,1.65356999 4.0502622,0.620088745 Z"></path>
                                <path d="M26.1667608,21.2897136 C26.9935458,20.4629286 27.6136345,19.6361436 28.2337233,18.6026624 C28.853812,17.5691811 29.2672045,16.5356999 29.680597,15.5022186 C28.027027,14.8821299 26.1667608,15.2955224 25.3399758,16.9490924 C24.3064946,18.3959661 24.7198871,20.2562324 26.1667608,21.2897136 Z"></path>
                            </g>
                            <g transform="translate(0.000000, 4.133925)">
                                <path d="M26.1667608,0.620088745 C26.9935458,1.44687374 27.6136345,2.27365873 28.2337233,3.30713998 C28.853812,4.34062122 29.2672045,5.37410246 29.680597,6.4075837 C28.027027,7.02767245 26.1667608,6.61427995 25.3399758,4.96070996 C24.3064946,3.51383622 24.7198871,1.65356999 26.1667608,0.620088745 Z"></path>
                                <path d="M4.0502622,21.2897136 C3.22347721,20.4629286 2.60338846,19.6361436 1.98329972,18.6026624 C1.36321097,17.5691811 0.949818475,16.5356999 0.536425978,15.5022186 C2.18999597,14.8821299 4.0502622,15.2955224 4.8770472,16.9490924 C5.91052844,18.3959661 5.49713594,20.2562324 4.0502622,21.2897136 Z"></path>
                            </g>
                        </g>
                        <circle id="Oval" fill="#D3D3D3" cx="30.3843485" cy="29.5575635" r="7.64776119"></circle>
                        <path d="M30.3843485,22.7365873 C34.5182735,22.7365873 37.8254135,25.8370311 38.0321097,29.970956 L38.0321097,29.5575635 C38.0321097,25.4236386 34.7249697,21.9098023 30.3843485,21.9098023 C26.2504236,21.9098023 22.7365873,25.2169423 22.7365873,29.5575635 L22.7365873,29.970956 C23.1499798,26.0437273 26.4571198,22.7365873 30.3843485,22.7365873 Z" id="Shape" fill="#E2E2E2"></path>
                        <circle id="Oval" fill="#E2E2E2" cx="30.3843485" cy="30.3843485" r="4.13392497"></circle>
                        <ellipse id="Oval" fill="#B6B6B6" cx="30.3843485" cy="29.5575635" rx="4.13392497" ry="4.13392497"></ellipse>
                    </g>
                    <path d="M388.532468,71.4594595 C383.12987,65.5250965 372.324675,60 362.350649,60 L354.454545,60 L341.779221,60 C339.077922,60 337,62.046332 337,64.7065637 L337,108.293436 C337,110.953668 339.077922,113 341.779221,113 L413.675325,113 C415.545455,113 417,111.567568 417,109.725869 L417,109.725869 C417,104.405405 414.922078,99.2895753 411.181818,95.4015444 L388.532468,71.4594595 Z" id="Shape" fill="#CAE6EA"></path>
                    <path d="M388.532468,71.4594595 C383.12987,65.5250965 372.324675,60 362.350649,60 L354.454545,60 L341.779221,60 C339.077922,60 337,62.046332 337,64.7065637 L337,108.293436 C337,110.953668 339.077922,113 341.779221,113 L413.675325,113 C415.545455,113 417,111.567568 417,109.725869 L417,109.725869 C417,104.405405 414.922078,99.2895753 411.181818,95.4015444 L388.532468,71.4594595 Z" id="Shape" fill="#CAE6EA"></path>
                    <path d="M475,136 L475,138.268041 L475,145.072165 C475,151.051546 479.744186,156 485.476744,156 L492,156 C492,146.103093 484.488372,136 475,136 Z" id="Shape" fill="#CAE6EA"></path>
                    <g transform="translate(475.000000, 136.000000)" id="Shape" fill="#E5F8F9">
                        <path d="M14.9945946,20.6446533 L18.4864865,20.6446533 C18.4864865,14.840658 15.8162162,9.03666275 11.7081081,5.30552291 C14.5837838,9.65851939 15.8162162,15.4625147 14.9945946,20.6446533 Z"></path>
                        <path d="M2.25945946,0.745240893 L2.25945946,0.745240893 L0.821621622,0.745240893 L0.821621622,3.0253819 L0.821621622,6.54923619 L2.25945946,0.745240893 Z"></path>
                    </g>
                    <path d="M480.032258,144.865979 L480.032258,138.061856 L480.032258,136.824742 C478.354839,136.206186 476.677419,136 475,136 L475,138.268041 L475,145.072165 C475,151.051546 480.032258,156 486.112903,156 L488,156 C483.596774,155.793814 480.032258,151.051546 480.032258,144.865979 Z" id="Shape" fill="#B3DEE2"></path>
                    <path d="M415,111.362934 L364.084034,60.2046332 L364.084034,60.2046332 C363.266106,60.2046332 362.448179,60 361.42577,60 L353.655462,60 L342,60 L394.756303,113 L411.52381,113 L412.137255,113 C413.364146,113 414.591036,112.3861 415,111.362934 Z" id="Shape" fill="#E5F8F9"></path>
                    <path d="M372,113.793522 L374.26087,114 L376,113.793522 L376,64.8582996 C375.478261,64.4453441 374.782609,64.2388664 374.086957,63.8259109 C373.391304,63.4129555 372.695652,63.2064777 372,63 L372,113.793522 Z" id="Shape" fill="#3D3B39"></path>
                    <path d="M353.473934,86.0890688 C354.725118,87.3036437 356.810427,87.3036437 358.061611,86.0890688 C359.312796,84.8744939 359.312796,82.8502024 358.061611,81.4331984 L338.251185,62 C337.417062,62.8097166 337,63.8218623 337,65.0364372 L337,69.8947368 L353.473934,86.0890688 Z" id="Shape" fill="#DCF5F7"></path>
                    <path d="M364.444444,87.627766 C363.111111,86.7575121 361.111111,86.7575121 360,87.8453295 C358.666667,89.1507104 358.666667,91.3263452 360,92.8492896 L361.555556,94.372234 C362.888889,95.2424879 364.888889,95.2424879 366,94.1546705 C367.333333,92.8492896 367.333333,90.6736548 366,89.1507104 L364.444444,87.627766 Z" id="Shape" fill="#DCF5F7"></path>
                    <path d="M502,178 L451,178 L451,182 L500.560484,182 C500.971774,180.545455 501.58871,179.272727 502,178 Z" id="Shape" fill="#3D3B39"></path>
                    <polygon id="Shape" fill="#3D3B39" points="408 100 414.382353 104.965517 415 111.37931 409.852941 112"></polygon>
                    <path d="M388.532468,71.4594595 C383.12987,65.5250965 372.324675,60 362.350649,60 L354.454545,60 L341.779221,60 C339.077922,60 337,62.046332 337,64.7065637 L337,108.293436 C337,110.953668 339.077922,113 341.779221,113 L413.675325,113 C415.545455,113 417,111.567568 417,109.725869 C417,104.405405 414.922078,99.2895753 411.181818,95.4015444 L388.532468,71.4594595 Z M413.675325,110.953668 L341.779221,110.953668 C340.324675,110.953668 339.077922,109.725869 339.077922,108.293436 L339.077922,64.7065637 C339.077922,63.2741313 340.324675,62.046332 341.779221,62.046332 L362.350649,62.046332 C371.909091,62.046332 381.883117,67.3667954 386.87013,72.6872587 L409.727273,96.6293436 C413.051948,100.108108 414.922078,104.814672 414.922078,109.521236 C415.12987,110.339768 414.506494,110.953668 413.675325,110.953668 Z" id="Shape" stroke="#3D3B39" stroke-width="0.5" fill="#3D3B39"></path>
                    <path d="M409.866667,111 L413.833333,111 C414.533333,111 415,110.576923 415,109.942308 C415,108.038462 414.533333,105.923077 414.066667,104.230769 L408,100 L409.866667,111 Z" id="Shape" fill="#333130"></path>
                    <path d="M405.5,120 L405.5,120 C403.045455,120 401,117.878788 401,115.333333 L401,103.666667 C401,101.121212 403.045455,99 405.5,99 L405.5,99 C407.954545,99 410,101.121212 410,103.666667 L410,115.333333 C409.795455,117.878788 407.954545,120 405.5,120 Z" id="Shape" fill="#3D3B39"></path>
                    <path d="M320.314917,47.8 L352.20442,47.8 L360.790055,47.8 C368.558011,47.8 380.414365,49.6 389,53 C381.845304,47.2 371.01105,44 360.790055,44 L352.20442,44 L320.314917,44 C317.248619,44 315,46.4 315,49.2 L315,53 C315,50.2 317.453039,47.8 320.314917,47.8 Z" id="Shape" fill="#514E4C"></path>
                    <path d="M115,176 L189,176 C184.900277,166.76 177.725762,159.2 168.501385,155 L135.293629,155 C126.274238,159.2 118.894737,166.76 115,176 Z" id="Shape" fill="#3D3B39"></path>
                    <path d="M124,175 L181,175 C175.175182,165.481013 164.773723,159 152.5,159 C140.226277,159 129.824818,165.481013 124,175 Z" id="Shape" fill="#2D2B2A"></path>
                    <g transform="translate(120.000000, 162.000000)">
                        <ellipse id="Oval" fill="#808085" cx="30.507382" cy="30.3843485" rx="29.7642598" ry="29.7642598"></ellipse>
                        <path d="M30.507382,3.72053247 C46.4229931,3.72053247 59.2381605,16.1223074 60.0649455,31.8312223 L60.0649455,30.3843485 C60.0649455,14.0553449 46.8363856,0.620088745 30.3006858,0.620088745 C13.9716821,0.620088745 0.536425978,13.8486486 0.536425978,30.3843485 L0.536425978,31.8312223 C1.77660347,16.3290036 14.5917709,3.72053247 30.507382,3.72053247 Z" id="Shape" fill="#8E8E91"></path>
                        <ellipse id="Oval" fill="#444446" cx="30.507382" cy="29.5575635" rx="21.9098023" ry="21.9098023"></ellipse>
                        <circle id="Oval" fill="#69696D" cx="30.507382" cy="29.5575635" r="17.5691811"></circle>
                        <ellipse id="Oval" fill="#B6B6B6" cx="30.507382" cy="29.5575635" rx="15.0888261" ry="15.0888261"></ellipse>
                        <path d="M39.6020169,17.3624849 C41.4622832,19.8428399 42.7024607,22.9432836 42.7024607,26.4571198 C42.7024607,34.7249697 35.8814845,41.5459459 27.6136345,41.5459459 C24.3064946,41.5459459 20.9993546,40.3057685 18.5189996,38.4455022 C21.2060508,42.1660347 25.7533683,44.4396934 30.507382,44.4396934 C38.7752319,44.4396934 45.5962081,37.6187172 45.5962081,29.3508673 C45.5962081,24.5968536 43.3225494,20.2562324 39.6020169,17.3624849 Z" id="Shape" fill="#A5A5A5"></path>
                        <g transform="translate(15.625252, 14.468737)" id="Shape" fill="#5A5A5B">
                            <g transform="translate(11.245260, 0.000000)">
                                <path d="M7.15070593,0.413392497 C6.11722469,0.206696248 4.8770472,0 3.63686971,0 C2.39669221,0 1.36321097,0.206696248 0.123033481,0.413392497 C0.32972973,2.06696248 1.77660347,3.51383622 3.63686971,3.51383622 C5.49713594,3.51383622 6.94400968,2.06696248 7.15070593,0.413392497 Z"></path>
                                <path d="M0.123033481,29.7642598 C1.15651472,29.970956 2.39669221,30.1776523 3.63686971,30.1776523 C4.8770472,30.1776523 5.91052844,29.970956 7.15070593,29.7642598 C6.94400968,28.1106898 5.49713594,26.6638161 3.63686971,26.6638161 C1.77660347,26.6638161 0.32972973,28.1106898 0.123033481,29.7642598 Z"></path>
                            </g>
                            <g transform="translate(0.000000, 4.133925)">
                                <path d="M3.92722872,0.620088745 C3.10044373,1.44687374 2.48035498,2.27365873 1.86026624,3.30713998 C1.24017749,4.34062122 0.826784994,5.37410246 0.413392497,6.4075837 C2.06696248,7.02767245 3.92722872,6.61427995 4.75401372,4.96070996 C5.78749496,3.51383622 5.37410246,1.65356999 3.92722872,0.620088745 Z"></path>
                                <path d="M26.0437273,21.2897136 C26.8705123,20.4629286 27.490601,19.6361436 28.1106898,18.6026624 C28.7307785,17.5691811 29.144171,16.5356999 29.5575635,15.5022186 C27.9039935,14.8821299 26.0437273,15.2955224 25.2169423,16.9490924 C24.1834611,18.3959661 24.5968536,20.2562324 26.0437273,21.2897136 Z"></path>
                            </g>
                            <g transform="translate(0.000000, 4.133925)">
                                <path d="M26.0437273,0.620088745 C26.8705123,1.44687374 27.490601,2.27365873 28.1106898,3.30713998 C28.7307785,4.34062122 29.144171,5.37410246 29.5575635,6.4075837 C27.9039935,7.02767245 26.0437273,6.61427995 25.2169423,4.96070996 C24.1834611,3.51383622 24.5968536,1.65356999 26.0437273,0.620088745 Z"></path>
                                <path d="M3.92722872,21.2897136 C3.10044373,20.4629286 2.48035498,19.6361436 1.86026624,18.6026624 C1.24017749,17.5691811 0.826784994,16.5356999 0.413392497,15.5022186 C2.06696248,14.8821299 3.92722872,15.2955224 4.75401372,16.9490924 C5.78749496,18.3959661 5.37410246,20.2562324 3.92722872,21.2897136 Z"></path>
                            </g>
                        </g>
                        <circle id="Oval" fill="#D3D3D3" cx="30.507382" cy="29.5575635" r="7.64776119"></circle>
                        <path d="M30.507382,22.7365873 C34.641307,22.7365873 37.948447,25.8370311 38.1551432,29.970956 L38.1551432,29.5575635 C38.1551432,25.4236386 34.8480032,21.9098023 30.507382,21.9098023 C26.373457,21.9098023 22.8596208,25.2169423 22.8596208,29.5575635 L22.8596208,29.970956 C23.2730133,26.0437273 26.5801533,22.7365873 30.507382,22.7365873 Z" id="Shape" fill="#E2E2E2"></path>
                        <ellipse id="Oval" fill="#E2E2E2" cx="30.507382" cy="30.3843485" rx="4.13392497" ry="4.13392497"></ellipse>
                        <ellipse id="Oval" fill="#B6B6B6" cx="30.507382" cy="29.5575635" rx="4.13392497" ry="4.13392497"></ellipse>
                    </g>
                    <rect id="Rectangle-path" fill="#666462" x="4" y="150" width="309" height="7"></rect>
                    <rect id="Rectangle-path" fill="#3D3B39" x="306" y="157" width="8" height="19"></rect>
                    <rect id="Rectangle-path" fill="#666462" x="4" y="150" width="309" height="7"></rect>
                    <ellipse id="Oval" fill="#3D3B39" transform="translate(489.000000, 180.500000) rotate(-58.648113) translate(-489.000000, -180.500000) " cx="489" cy="180.5" rx="5" ry="4.5"></ellipse>
                    <ellipse id="Oval" fill="#21201F" transform="translate(490.000000, 179.500000) rotate(-58.648113) translate(-490.000000, -179.500000) " cx="490" cy="179.5" rx="5" ry="4.5"></ellipse>
                    <rect id="Rectangle-path" fill="#666462" x="1" y="122" width="314" height="34"></rect>
                    <g transform="translate(5.000000, 129.000000)" id="Rectangle-path" fill="#777574">
                        <rect x="0.743122227" y="14.0954172" width="304.050182" height="6.42585194"></rect>
                        <rect x="0.743122227" y="0.829142186" width="304.050182" height="6.42585194"></rect>
                    </g>
                </g>
            </g>
        </g>
    </g>
</svg>