<svg width="220" height="97" viewBox="0 0 220 97" fill="none" xmlns="http://www.w3.org/2000/svg">
<path d="M145.166 1.02374C145.166 1.87686 145.333 2.04749 146.212 2.04749C147.09 2.04749 147.258 1.87686 147.258 1.02374C147.258 0.170611 147.09 -1.45435e-05 146.212 -1.45435e-05C145.333 -1.45435e-05 145.166 0.170611 145.166 1.02374Z" fill="black"/>
<path d="M104.586 11.2612V22.1812H112.744H120.902L120.818 11.3295L120.693 0.511866L112.66 0.409491L104.586 0.341242V11.2612ZM118.183 15.6975C118.183 16.4482 117.973 16.5506 116.384 16.653C115.087 16.7212 114.543 16.6189 114.376 16.2435C113.832 15.1174 114.543 14.6396 116.384 14.742C117.973 14.8444 118.183 14.9467 118.183 15.6975ZM118.392 19.2806C118.392 20.0655 118.266 20.1337 116.3 20.1337C114.543 20.1337 114.208 20.0314 114.208 19.5195C114.208 18.5981 114.585 18.4275 116.593 18.4275C118.224 18.4275 118.392 18.4957 118.392 19.2806Z" fill="black"/>
<path d="M145.166 3.4125C145.166 4.26562 145.333 4.43625 146.212 4.43625C147.09 4.43625 147.258 4.26562 147.258 3.4125C147.258 2.55937 147.09 2.38875 146.212 2.38875C145.333 2.38875 145.166 2.55937 145.166 3.4125Z" fill="black"/>
<path d="M145.333 6.48373L145.626 8.18999L136.088 8.25824L126.549 8.36061L126.424 21.2257L126.34 34.125L93.5838 34.1932L60.8692 34.2956V39.0731V43.8506L104.712 43.953L148.513 44.0212V26.2421C148.513 8.70186 148.513 8.46299 147.676 8.29236C146.923 8.12173 146.839 7.91698 147.09 6.44961C147.341 4.81161 147.341 4.77748 146.212 4.77748C145.082 4.77748 145.04 4.81161 145.333 6.48373ZM146.63 19.4512V28.1531H140.146H133.661L133.536 19.7925C133.494 15.2197 133.536 11.2612 133.661 10.9882C133.787 10.647 135.293 10.5787 140.229 10.647L146.63 10.7494V19.4512ZM139.225 30.9855L139.351 32.7941L136.506 32.6917L133.661 32.5894L133.536 31.2585C133.327 29.1086 133.536 28.9721 136.464 29.0745L139.1 29.1769L139.225 30.9855Z" fill="black"/>
<path d="M135.628 12.3532C135.335 12.5921 135.126 13.7524 135.126 15.2197C135.126 18.564 135.418 18.7687 140.104 18.7687C144.706 18.7687 145.166 18.4616 145.166 15.3904C145.166 12.0461 145.04 11.9437 140.229 11.9437C137.594 11.9437 135.962 12.0802 135.628 12.3532Z" fill="black"/>
<path d="M60.6601 21.3281V33.1012H78.0214H95.3827V21.3281V9.55497H78.0214H60.6601V21.3281ZM88.731 14.9809L89.9442 15.9705V21.3281V26.6857L88.731 27.6754L87.5178 28.665H77.3102C66.1822 28.665 65.8475 28.5967 64.8853 26.6857C64.5088 26.0032 64.4252 24.0581 64.5088 20.6456C64.6343 15.6292 64.6343 15.6292 65.8057 14.8102C66.9771 13.9912 67.0189 13.9912 77.2265 13.9912H87.5178L88.731 14.9809ZM93.291 21.1575C93.291 24.57 93.1236 26.6175 92.8726 26.6175C92.6216 26.6175 92.4543 24.57 92.4543 21.1575C92.4543 17.745 92.6216 15.6975 92.8726 15.6975C93.1236 15.6975 93.291 17.745 93.291 21.1575Z" fill="black"/>
<path d="M108.77 23.7169C108.77 24.3311 108.979 24.57 109.606 24.57C110.318 24.57 110.443 24.8089 110.527 26.1739L110.569 27.8119L110.82 26.2762C111.029 25.0136 111.238 24.7065 112.033 24.6382C112.702 24.5359 112.953 24.297 112.953 23.6827C112.953 22.932 112.786 22.8637 110.861 22.8637C108.895 22.8637 108.77 22.932 108.77 23.7169Z" fill="black"/>
<path d="M98.8131 31.2926L98.9386 32.5894H111.28H123.621L123.747 31.2926L123.872 30.03H111.28H98.6876L98.8131 31.2926Z" fill="black"/>
<path d="M62.3334 47.0925V49.4812H74.8838H87.4341V48.4575V47.4337H104.586H121.738V48.4575V49.4812L134.205 49.413L146.63 49.3106V47.0925V44.8744L104.503 44.772L62.3334 44.7037V47.0925Z" fill="black"/>
<path d="M34.4298 69.6491C28.824 70.0586 27.1088 70.8776 23.26 75.075C20.6244 77.9415 18.3654 79.8525 17.696 79.8525C16.9011 79.8525 16.9848 79.6136 19.0347 74.6996C20.0806 72.2426 20.9173 70.0927 20.9173 69.9221C20.9173 69.7515 18.6582 69.615 15.939 69.615H10.9606L9.70561 72.5839C3.97428 86.2339 0 95.9254 0 96.2325C0 96.4372 1.88255 96.5737 4.97831 96.5737H9.91478L12.132 91.2844C13.387 88.2814 14.5166 85.995 14.8513 85.995C16.2736 85.995 17.0685 87.9742 17.7797 93.3319C18.2399 96.8467 17.696 96.5737 24.0967 96.5737C27.1924 96.5737 29.7025 96.4714 29.7025 96.3007C29.7025 95.55 27.9036 87.3259 27.5271 86.1997C27.2343 85.449 26.3976 84.357 25.6864 83.7427L24.3477 82.6849L26.1466 81.627C27.1506 81.0469 28.6985 79.7501 29.6188 78.7605C31.6269 76.5424 33.0074 75.7575 35.7267 75.2456L37.8184 74.8702L38.7806 72.5156C39.952 69.6832 39.952 69.2737 39.0316 69.3079C38.6133 69.342 36.5634 69.4785 34.4298 69.6491Z" fill="black"/>
<path d="M43.6334 81.1151C38.0694 87.4624 32.7564 93.5366 31.7942 94.6286L30.079 96.5737H35.3502H40.6213L42.2947 94.3556L44.0099 92.1375H49.8249H55.6399V94.3897V96.642L66.0149 96.5055L76.348 96.4031L78.6489 95.3452C82.2885 93.6731 83.7527 91.4891 88.3545 80.535L90.1534 76.2694L93.6675 76.167C95.5919 76.0988 97.3489 76.2011 97.5581 76.3717C97.7673 76.5424 96.2612 80.6715 93.9185 86.268C91.7431 91.5232 89.9442 95.9936 89.9442 96.1984C89.9442 96.4372 91.6176 96.5737 94.9225 96.5737C99.2733 96.5737 99.9008 96.5055 100.11 95.9936C100.236 95.6524 102.704 89.7146 105.59 82.7872C108.477 75.8599 110.861 70.0586 110.861 69.888C110.861 69.7515 104.503 69.615 96.7633 69.615H82.6232L79.1091 78.2486C75.344 87.3941 74.089 89.8852 72.9176 90.3971C72.4992 90.5677 71.286 90.8066 70.2402 90.9431C68.3995 91.1479 68.274 91.2502 67.7719 92.5811C66.5169 96.0619 66.2241 95.9595 65.9312 91.9327C65.8057 89.8852 65.5965 85.3807 65.471 81.9C65.3455 78.4193 65.1364 74.256 65.0109 72.5839L64.7599 69.615H59.2377H53.7155L43.6334 81.1151ZM56.3093 78.0098C56.1838 78.3169 56.0583 80.2961 56.0583 82.446V86.3362H52.5023C50.5361 86.3362 48.9464 86.2339 48.9464 86.1315C48.9464 86.0291 49.8249 84.8347 50.9126 83.5039C51.9585 82.1389 53.4645 80.2279 54.2594 79.2383C55.5563 77.6003 56.895 76.7812 56.3093 78.0098Z" fill="black"/>
<path d="M117.806 69.9221C117.597 70.1951 106.678 96.2666 106.678 96.4714C106.678 96.5396 108.519 96.5737 110.82 96.5737H114.919L118.81 87.2576C122.324 78.897 123.412 76.6106 123.412 77.6685C123.412 77.8732 123.244 79.6136 122.993 81.5929C122.784 83.538 122.408 87.2235 122.157 89.7487C121.906 92.274 121.613 94.8675 121.487 95.4476L121.278 96.5737H125.169H129.059L135.962 87.1552C139.727 81.9682 142.907 77.8732 142.949 78.0439C143.074 78.2827 137.008 93.3319 135.753 95.9595C135.46 96.5055 135.837 96.5737 139.644 96.5737H143.785L145.71 92.0692C150.395 81.0127 154.788 70.2975 154.788 69.9562C154.788 69.7515 152.445 69.615 148.22 69.615H141.61L136.004 77.2931C132.95 81.5246 130.231 85.0736 130.064 85.176C129.854 85.2784 129.771 84.357 129.938 83.0261C130.775 75.2115 131.193 70.0927 131.068 69.8539C130.817 69.5126 118.057 69.5467 117.806 69.9221Z" fill="black"/>
<path d="M161.272 69.9562C161.021 70.2634 150.186 96.1642 150.186 96.4372C150.186 96.5055 156.461 96.5737 164.117 96.5737H178.048L179.177 93.7414C179.805 92.1716 180.307 90.8066 180.307 90.6701C180.307 90.5336 176.458 90.4312 171.731 90.4312C167.003 90.4312 163.155 90.3289 163.155 90.1924C163.155 90.0559 163.573 88.9297 164.075 87.633L164.995 85.3125L172.442 85.2784C176.542 85.2442 180.139 85.2101 180.432 85.176C180.683 85.176 181.436 83.9475 182.064 82.4801L183.193 79.8525H175.496C166.752 79.8525 167.171 80.0231 168.426 77.0201L169.095 75.4162L177.713 75.348L186.373 75.2456L187.502 72.6862C188.13 71.2871 188.632 70.0245 188.632 69.8539C188.674 69.4785 161.565 69.5467 161.272 69.9562Z" fill="black"/>
<path d="M193.819 71.7307C193.317 72.9251 190.849 78.897 188.297 85.0395C185.745 91.182 183.654 96.2666 183.654 96.4031C183.654 96.5055 185.954 96.5396 188.757 96.5055L193.819 96.4031L195.786 91.6256L197.752 86.8481L200.429 86.7799C211.683 86.4386 216.619 84.084 219.255 77.8732C220.761 74.3242 219.966 71.6966 217.037 70.3999C215.824 69.8539 214.318 69.7856 205.198 69.6832L194.698 69.5809L193.819 71.7307ZM208.085 75.4162C210.26 76.0646 209.675 78.6581 207.039 80.2961C205.826 81.0127 200.387 81.5929 200.387 80.9786C200.387 80.5691 202.312 75.894 202.688 75.4162C203.023 74.9726 206.704 74.9726 208.085 75.4162Z" fill="black"/>
</svg>
